<?xml version="1.0" encoding="UTF-8"?>
<svg width="128pt" height="128pt" version="1.1" viewBox="0 0 128 128" xmlns="http://www.w3.org/2000/svg">
 <path d="m64.641 102.66h48.77c2.1758 0 3.9688-1.793 3.9688-3.9688l-0.003906-51.328c0-1.0234-0.89453-1.9219-1.9219-1.9219l-12.926 0.003906c-2.9453 0-5.2461-2.3047-5.2461-5.2461v-12.93c0-1.0234-0.89453-1.9219-1.9219-1.9219h-34.176c-2.1758 0-3.9688 1.793-3.9688 3.9688v23.68h-0.38281-7.168v-23.68c0-6.2734 5.1211-11.391 11.391-11.391h35.84c3.0703 0 5.8867 1.1523 8.0625 3.3281l16.383 16.383c2.1758 2.1758 3.3281 5.1211 3.3281 8.0625v52.863c0 6.2734-5.1211 11.391-11.391 11.391h-48.641c0.12891-0.51172 0.12891-1.0234 0.12891-1.6641v-3.5859c0.12891-0.63672 0.003906-1.4023-0.125-2.043z" fill="#4c25e0"/>
 <path d="m105.09 86.398c2.0469 0 3.7109 1.6641 3.7109 3.7109s-1.6641 3.7109-3.7109 3.7109l-33.793 0.003907c1.793-2.1758 3.1992-4.6094 4.0977-7.4258z" fill="#4c25e0"/>
 <path d="m105.09 70.273c2.0469 0 3.7109 1.6641 3.7109 3.7109s-1.6641 3.7109-3.7109 3.7109h-30.211l-3.7109-7.4258z" fill="#4c25e0"/>
 <path d="m65.664 57.855c0-2.0469 1.6641-3.7109 3.7109-3.7109h35.711c2.0469 0 3.7109 1.6641 3.7109 3.7109s-1.6641 3.7109-3.7109 3.7109h-35.711c-2.0469 0-3.7109-1.6641-3.7109-3.7109z" fill="#4c25e0"/>
 <path d="m69.375 38.016h16.641c2.0469 0 3.7109 1.6641 3.7109 3.7109 0 2.0469-1.6641 3.7109-3.7109 3.7109h-16.641c-2.0469 0-3.7109-1.6641-3.7109-3.7109 0-2.0469 1.6641-3.7109 3.7109-3.7109z" fill="#4c25e0"/>
 <path d="m3.3281 83.199c1.6641 5.8867 6.2734 9.7266 11.648 9.7266s9.9844-3.8398 11.648-9.7266c0.12891-0.64062 0.12891-1.2812-0.25781-1.793l-7.4219-14.848h8.9609c0.64062 1.793 1.9219 3.3281 3.5859 4.2227v22.145c0 4.7344-3.5859 8.832-8.3203 9.3438l-7.4258 0.76953c-0.76953 0.12891-1.4062 0.76953-1.4062 1.6641v3.5859c0 0.89453 0.76953 1.6641 1.6641 1.6641h39.035c0.89453 0 1.6641-0.76953 1.6641-1.6641v-3.5859c0-0.76953-0.64062-1.5352-1.4062-1.6641l-7.4258-0.64062c-4.7344-0.51172-8.3203-4.4805-8.3203-9.3438v-22.145c1.6641-0.89453 2.9453-2.4336 3.5859-4.2227h8.9609l-7.4258 14.848c-0.25781 0.51172-0.38281 1.2812-0.25781 1.793 1.6641 5.8867 6.2734 9.7266 11.648 9.7266s9.9844-3.8398 11.648-9.7266c0.12891-0.64062 0.12891-1.2812-0.12891-1.793l-9.6016-19.07c-0.38281-0.64062-1.0234-1.1523-1.6641-1.1523l-13.055 0.12891c-0.64062-1.9219-1.9219-3.457-3.5859-4.3516v-2.4336c0-2.1758-1.793-3.9688-3.9688-3.9688s-3.9688 1.793-3.9688 3.9688v2.4336c-1.6641 1.0234-2.9453 2.5586-3.5859 4.3516l-13.055-0.12891c-0.76953 0-1.4062 0.51172-1.6641 1.1523l-9.9766 18.941c-0.25781 0.51562-0.38672 1.2812-0.12891 1.793zm52.734-14.977 6.2734 12.289h-12.414zm-47.359 12.418 6.2734-12.289 6.2734 12.289z" fill="#4c25e0"/>
</svg>
